Coordinates
version=1
nRows=8
nColumns=40
inDegrees=yes

Units are S.I. units (second, meters, Newtons, ...)
If the header above contains a line with 'inDegrees', this indicates whether rotational values are in degrees (yes) or radians (no).

endheader
time	pelvis_tilt	pelvis_list	pelvis_rotation	pelvis_tx	pelvis_ty	pelvis_tz	hip_flexion_r	hip_adduction_r	hip_rotation_r	knee_angle_r	knee_angle_r_beta	ankle_angle_r	subtalar_angle_r	mtp_angle_r	hip_flexion_l	hip_adduction_l	hip_rotation_l	knee_angle_l	knee_angle_l_beta	ankle_angle_l	subtalar_angle_l	mtp_angle_l	lumbar_extension	lumbar_bending	lumbar_rotation	arm_flex_r	arm_add_r	arm_rot_r	elbow_flex_r	pro_sup_r	wrist_flex_r	wrist_dev_r	arm_flex_l	arm_add_l	arm_rot_l	elbow_flex_l	pro_sup_l	wrist_flex_l	wrist_dev_l
      1.77000000	    -15.06308283	     -2.96372542	     -0.21318764	      0.17031355	      0.47777020	     -1.22075972	     98.84905189	    -46.62614844	     12.77346912	    115.51731849	      2.01615755	     32.54132537	      8.06536818	      0.00000000	    107.59749029	    -44.76850318	     22.85274984	    116.79286439	      2.03842003	     29.92793771	     23.52421559	      0.00000000	    -19.85170595	      3.92993089	     -5.89627941	     44.99985583	    -15.00000039	     44.99985583	     75.00017585	     45.00000026	      0.00000000	      0.00000000	     44.99985583	    -15.00000039	     44.99985583	     75.00017585	     45.00000026	      0.00000000	      0.00000000
      1.77500000	    -15.07997004	     -3.01606661	     -0.25483226	      0.17055658	      0.47580035	     -1.22100325	     99.05115726	    -46.66303986	     13.05897232	    115.75587813	      2.02032120	     33.14674013	      8.90933043	      0.00000000	    108.03698074	    -44.76742126	     23.24673128	    117.09774734	      2.04374124	     29.96172049	     23.43111391	      0.00000000	    -19.82634329	      3.96978850	     -5.94921784	     44.99985722	    -15.00000038	     44.99985722	     75.00017585	     45.00000026	      0.00000000	      0.00000000	     44.99985722	    -15.00000038	     44.99985722	     75.00017585	     45.00000026	      0.00000000	      0.00000000
      1.78000000	    -14.88461340	     -2.96710140	     -0.18089074	      0.17071725	      0.47439882	     -1.22126374	     99.20893753	    -46.79006255	     13.46050788	    115.97653459	      2.02417238	     33.32748845	      9.10643590	      0.00000000	    108.02324656	    -44.71422139	     23.37834003	    117.34608725	      2.04807559	     30.05112116	     23.52562063	      0.00000000	    -20.13556607	      3.83675338	     -6.17458881	     44.99985989	    -15.00000036	     44.99985989	     75.00017585	     45.00000026	      0.00000000	      0.00000000	     44.99985989	    -15.00000036	     44.99985989	     75.00017585	     45.00000026	      0.00000000	      0.00000000
      1.78500000	    -14.76855757	     -2.92841646	     -0.20634345	      0.17086146	      0.47283032	     -1.22139063	     99.44000885	    -46.79660734	     13.80456443	    116.19346962	      2.02795861	     33.44682150	      9.16012130	      0.00000000	    108.15686183	    -44.74369936	     23.59404927	    117.59881464	      2.05248651	     30.13954647	     23.63230411	      0.00000000	    -20.33176544	      3.77104936	     -6.22408014	     44.99986201	    -15.00000034	     44.99986201	     75.00017585	     45.00000026	      0.00000000	      0.00000000	     44.99986201	    -15.00000034	     44.99986201	     75.00017585	     45.00000026	      0.00000000	      0.00000000
      1.79000000	    -14.59890216	     -2.88684975	     -0.20471041	      0.17106207	      0.47135693	     -1.22151478	     99.63680804	    -46.84564325	     14.16120015	    116.43648626	      2.03220005	     33.54920309	      9.23681979	      0.00000000	    108.20637990	    -44.76405424	     23.78283632	    117.84750674	      2.05682701	     30.26984791	     23.73472793	      0.00000000	    -20.56891689	      3.70231793	     -6.20346037	     44.99986404	    -15.00000032	     44.99986404	     75.00017585	     45.00000026	      0.00000000	      0.00000000	     44.99986404	    -15.00000032	     44.99986404	     75.00017585	     45.00000026	      0.00000000	      0.00000000
      1.79500000	    -14.50220053	     -2.86793875	     -0.23560505	      0.17120970	      0.46973382	     -1.22171350	     99.85641328	    -46.84986048	     14.48558904	    116.62372861	      2.03546805	     33.67805060	      9.31662188	      0.00000000	    108.38993645	    -44.77547591	     24.04724289	    118.11492362	      2.06149431	     30.33221139	     23.83466851	      0.00000000	    -20.75612751	      3.74998671	     -6.10327728	     44.99986638	    -15.00000031	     44.99986638	     75.00017585	     45.00000026	      0.00000000	      0.00000000	     44.99986638	    -15.00000031	     44.99986638	     75.00017585	     45.00000026	      0.00000000	      0.00000000
      1.80000000	    -14.41275954	     -2.73400608	     -0.23231961	      0.17136512	      0.46805049	     -1.22177377	    100.27316342	    -46.86634127	     15.02413231	    116.87052835	      2.03977552	     33.79337264	      9.41344000	      0.00000000	    108.41958529	    -44.78362306	     24.10697386	    118.36793850	      2.06591026	     30.42918568	     23.91115065	      0.00000000	    -20.89892090	      3.59988178	     -6.14002038	     44.99986859	    -15.00000029	     44.99986859	     75.00017585	     45.00000026	      0.00000000	      0.00000000	     44.99986859	    -15.00000029	     44.99986859	     75.00017585	     45.00000026	      0.00000000	      0.00000000
      1.80500000	    -14.22193483	     -3.04696793	     -0.17003948	      0.17161424	      0.46668151	     -1.22253640	     99.93688132	    -47.06147048	     14.77444498	    117.01261395	      2.04225538	     33.93604073	      9.47631034	      0.00000000	    108.83759300	    -44.59180308	     24.81851631	    118.66091576	      2.07102367	     30.50909314	     24.00505791	      0.00000000	    -21.17857013	      4.16376032	     -6.01255119	     44.99987128	    -15.00000027	     44.99987128	     75.00017585	     45.00000026	      0.00000000	      0.00000000	     44.99987128	    -15.00000027	     44.99987128	     75.00017585	     45.00000026	      0.00000000	      0.00000000
